<svg width="25" height="25" viewBox="0 0 25 25" fill="none" xmlns="http://www.w3.org/2000/svg">
<path d="M23.5339 2.77994C21.1554 2.91493 16.428 3.40625 13.5095 5.19271C13.3082 5.31597 13.194 5.53515 13.194 5.76432V21.5573C13.194 22.0586 13.7422 22.3754 14.2044 22.1428C17.207 20.6315 21.5495 20.2192 23.6966 20.1063C24.4297 20.0677 24.9996 19.48 24.9996 18.7756V4.11241C25 3.34375 24.3333 2.73481 23.5339 2.77994ZM11.49 5.19271C8.57205 3.40625 3.84462 2.91536 1.46615 2.77994C0.666667 2.73481 4.76837e-07 3.34375 4.76837e-07 4.11241V18.776C4.76837e-07 19.4809 0.569879 20.0686 1.30295 20.1068C3.45096 20.2196 7.79557 20.6324 10.7982 22.1445C11.2591 22.3767 11.8056 22.0603 11.8056 21.5603V5.75651C11.8056 5.52691 11.6918 5.3164 11.49 5.19271Z" fill="#062958"/>
</svg>
